<?xml version="1.0" encoding="UTF-8" standalone="no"?><svg xmlns="http://www.w3.org/2000/svg" xmlns:xlink="http://www.w3.org/1999/xlink" fill="#000000" height="911.6" preserveAspectRatio="xMidYMid meet" version="1" viewBox="-651.3 975.9 2803.7 911.6" width="2803.7" zoomAndPan="magnify"><g><g fill="#be3436" id="change1_1"><path d="M-457.68494,1084.1177L-463.4363,1087.9083Q-651.33936,1209.9767,-649.3655,1497.2395Q-641.6448,1604.7976,-577.58716,1687.3672Q-535.723,1746.3007,-425.44144,1781.6158Q-257.4721,1828.9766,30.445923,1843.23Q112.747375,1852.6521,927.17426,1864.838L1414.1028,1884.2429Q1581.7595,1887.5242,1735.9775,1865.8777Q1901.7251,1841.3018,1963.5486,1798.3113Q2152.3396,1646.8694,2100.155,1371.2793Q2079.522,1276.4929,2018.7017,1208.0099Q1934.4412,1123.7924,1812.417,1093.5569Q1587.8748,1042.4203,1288.9951,1017.18634Q950.0899,990.6903,388.41913,981.05597Q-274.7727,975.89343,-457.68494,1084.1177"/></g></g></svg>