<?xml version="1.0" encoding="UTF-8"?><svg xmlns="http://www.w3.org/2000/svg" xmlns:xlink="http://www.w3.org/1999/xlink" height="276.3" preserveAspectRatio="xMidYMid meet" version="1.0" viewBox="31.7 74.5 359.0 276.3" width="359.0" zoomAndPan="magnify"><g><g id="change1_1"><path d="M 381.867188 130.746094 C 379.453125 124.488281 376.140625 118.761719 371.648438 113.964844 C 360.042969 101.570312 340.519531 93.308594 324.460938 88.769531 C 299.605469 81.742188 273.242188 78.5625 247.472656 77.722656 C 215.363281 76.675781 183.082031 78.757812 151.425781 84.273438 C 119.910156 89.765625 86.542969 98.101562 62.402344 120.464844 C 31.742188 148.867188 33.195312 195.40625 46.210938 232.539062 C 53.988281 254.726562 67.347656 274.277344 87.113281 287.339844 C 96.417969 293.488281 106.71875 297.734375 117.425781 300.703125 C 123.347656 314.605469 124.390625 329.371094 110.269531 337.171875 C 105.496094 339.808594 107.429688 348.136719 113.128906 347.726562 C 141.359375 345.707031 165.726562 329.453125 182.722656 307.269531 C 183.859375 305.789062 197.144531 306.449219 199.457031 306.25 C 205.597656 305.71875 211.722656 305.019531 217.828125 304.199219 C 243.6875 300.710938 269.449219 298.832031 295.046875 293.296875 C 320.765625 287.726562 348.246094 279.671875 363.765625 256.722656 C 377.414062 236.527344 385.289062 210.597656 387.058594 186.515625 C 388.304688 169.464844 388.546875 148.074219 381.867188 130.746094" fill="#fff"/></g><g id="change2_1"><path d="M 381.867188 130.746094 L 384.664062 129.667969 C 382.144531 123.125 378.644531 117.046875 373.835938 111.914062 C 367.683594 105.351562 359.621094 100.035156 351.070312 95.738281 C 342.515625 91.449219 333.457031 88.195312 325.277344 85.882812 C 300.113281 78.769531 273.519531 75.570312 247.570312 74.722656 C 242.210938 74.546875 236.84375 74.460938 231.476562 74.460938 C 204.5 74.460938 177.492188 76.683594 150.910156 81.320312 C 135.078125 84.078125 118.6875 87.5625 103.121094 93.222656 C 87.5625 98.886719 72.804688 106.738281 60.359375 118.265625 C 50.980469 126.949219 44.476562 137.300781 40.347656 148.480469 C 36.21875 159.660156 34.449219 171.667969 34.449219 183.78125 C 34.449219 200.757812 37.917969 217.953125 43.378906 233.53125 C 47.351562 244.871094 52.765625 255.570312 59.742188 265.128906 C 66.71875 274.6875 75.261719 283.101562 85.457031 289.839844 C 95.085938 296.203125 105.6875 300.558594 116.625 303.59375 L 117.425781 300.703125 L 114.667969 301.878906 C 117.058594 307.476562 118.550781 313.132812 118.542969 318.117188 C 118.539062 321.558594 117.855469 324.652344 116.351562 327.371094 C 114.835938 330.089844 112.488281 332.511719 108.816406 334.546875 C 107.371094 335.339844 106.261719 336.53125 105.570312 337.847656 C 104.875 339.164062 104.570312 340.59375 104.570312 341.984375 C 104.574219 344.082031 105.242188 346.148438 106.609375 347.835938 C 107.292969 348.671875 108.171875 349.410156 109.214844 349.929688 C 110.257812 350.453125 111.46875 350.742188 112.726562 350.738281 C 112.929688 350.738281 113.125 350.734375 113.308594 350.722656 L 113.339844 350.71875 C 127.972656 349.671875 141.585938 344.933594 153.6875 337.628906 C 165.792969 330.320312 176.398438 320.453125 185.105469 309.09375 L 183.285156 307.699219 L 184.558594 309.613281 C 184.683594 309.523438 184.878906 309.382812 185.105469 309.09375 L 183.285156 307.699219 L 184.558594 309.613281 L 183.765625 308.421875 L 184.335938 309.734375 C 184.363281 309.722656 184.433594 309.691406 184.558594 309.613281 L 183.765625 308.421875 L 184.335938 309.734375 L 184.191406 309.402344 L 184.316406 309.742188 L 184.335938 309.734375 L 184.191406 309.402344 L 184.316406 309.742188 C 184.335938 309.730469 184.734375 309.625 185.273438 309.558594 C 186.09375 309.445312 187.265625 309.367188 188.554688 309.324219 C 189.84375 309.28125 191.261719 309.265625 192.636719 309.265625 C 194.472656 309.265625 196.230469 309.289062 197.578125 309.289062 C 198.011719 309.289062 198.40625 309.285156 198.753906 309.28125 C 199.105469 309.273438 199.402344 309.261719 199.699219 309.238281 L 199.714844 309.238281 C 205.910156 308.703125 212.082031 308 218.230469 307.171875 C 243.96875 303.695312 269.8125 301.820312 295.679688 296.226562 C 308.617188 293.421875 322.125 289.980469 334.492188 284.246094 C 340.675781 281.378906 346.574219 277.933594 351.953125 273.691406 C 357.332031 269.449219 362.183594 264.414062 366.25 258.402344 C 380.257812 237.65625 388.234375 211.304688 390.046875 186.734375 C 390.449219 181.234375 390.75 175.269531 390.75 169.109375 C 390.742188 155.996094 389.410156 142 384.667969 129.667969 L 379.066406 131.824219 C 383.410156 143.066406 384.757812 156.410156 384.75 169.109375 C 384.75 175.074219 384.460938 180.898438 384.0625 186.296875 C 382.34375 209.890625 374.574219 235.398438 361.277344 255.039062 C 357.585938 260.503906 353.183594 265.082031 348.238281 268.980469 C 340.828125 274.824219 332.179688 279.144531 322.96875 282.507812 C 313.761719 285.878906 303.996094 288.289062 294.410156 290.363281 C 269.089844 295.847656 243.410156 297.726562 217.429688 301.226562 C 211.363281 302.042969 205.285156 302.734375 199.199219 303.261719 L 199.214844 303.257812 C 199.140625 303.265625 198.921875 303.273438 198.636719 303.28125 C 198.351562 303.285156 197.988281 303.289062 197.578125 303.289062 C 196.296875 303.289062 194.519531 303.265625 192.636719 303.265625 C 190.417969 303.265625 188.0625 303.296875 186.0625 303.449219 C 185.058594 303.527344 184.148438 303.628906 183.300781 303.8125 C 182.871094 303.90625 182.457031 304.019531 181.992188 304.210938 C 181.761719 304.3125 181.511719 304.433594 181.234375 304.613281 C 180.960938 304.800781 180.648438 305.046875 180.339844 305.441406 C 172.050781 316.269531 161.972656 325.621094 150.589844 332.488281 C 139.199219 339.363281 126.515625 343.761719 112.914062 344.734375 L 113.128906 347.726562 L 112.945312 344.734375 C 112.855469 344.738281 112.78125 344.742188 112.726562 344.742188 C 112.359375 344.738281 112.113281 344.667969 111.886719 344.558594 C 111.554688 344.394531 111.234375 344.089844 110.976562 343.625 C 110.722656 343.164062 110.566406 342.558594 110.566406 341.984375 C 110.566406 341.476562 110.683594 341.007812 110.875 340.652344 C 111.070312 340.292969 111.308594 340.03125 111.71875 339.796875 C 116.230469 337.3125 119.519531 334.042969 121.597656 330.28125 C 123.683594 326.523438 124.546875 322.351562 124.542969 318.117188 C 124.535156 311.960938 122.777344 305.621094 120.1875 299.527344 C 119.828125 298.691406 119.105469 298.054688 118.230469 297.8125 C 107.75 294.90625 97.75 290.773438 88.765625 284.835938 C 79.203125 278.515625 71.179688 270.621094 64.589844 261.59375 C 58 252.566406 52.84375 242.394531 49.039062 231.546875 C 43.773438 216.523438 40.445312 199.933594 40.445312 183.78125 C 40.445312 172.25 42.136719 160.949219 45.976562 150.558594 C 49.820312 140.164062 55.792969 130.679688 64.4375 122.667969 C 76.136719 111.828125 90.136719 104.335938 105.171875 98.863281 C 120.207031 93.390625 136.261719 89.960938 151.941406 87.230469 C 178.164062 82.65625 204.832031 80.460938 231.476562 80.460938 C 236.777344 80.460938 242.078125 80.546875 247.375 80.71875 C 272.964844 81.554688 299.097656 84.714844 323.644531 91.65625 C 331.519531 93.882812 340.257812 97.027344 348.378906 101.105469 C 356.503906 105.175781 364.007812 110.183594 369.457031 116.015625 C 373.640625 120.480469 376.765625 125.851562 379.066406 131.824219 L 381.867188 130.746094" fill="#231f20"/></g><g id="change1_2"><path d="M 299.117188 97.488281 C 303.210938 97.175781 306.671875 97.804688 310.445312 99.691406" fill="#fff"/></g><g id="change2_2"><path d="M 299.351562 100.480469 C 299.945312 100.433594 300.515625 100.410156 301.0625 100.410156 C 303.914062 100.421875 306.28125 100.976562 309.105469 102.375 C 310.585938 103.117188 312.386719 102.515625 313.128906 101.035156 C 313.871094 99.554688 313.273438 97.753906 311.789062 97.011719 C 308.285156 95.242188 304.769531 94.398438 301.0625 94.410156 C 300.34375 94.410156 299.621094 94.441406 298.886719 94.496094 C 297.234375 94.625 296 96.066406 296.128906 97.722656 C 296.253906 99.371094 297.699219 100.609375 299.351562 100.480469" fill="#231f20"/></g><g id="change1_3"><path d="M 315.480469 102.839844 C 339.398438 106.929688 360.164062 125.496094 367.71875 148.46875" fill="#fff"/></g><g id="change2_3"><path d="M 314.976562 105.796875 C 326.328125 107.734375 337.015625 113.136719 345.753906 120.824219 C 354.496094 128.511719 361.273438 138.464844 364.867188 149.402344 C 365.386719 150.976562 367.082031 151.835938 368.65625 151.316406 C 370.230469 150.800781 371.085938 149.105469 370.570312 147.53125 C 366.609375 135.496094 359.226562 124.683594 349.71875 116.320312 C 340.207031 107.960938 328.550781 102.03125 315.988281 99.882812 C 314.355469 99.601562 312.804688 100.699219 312.523438 102.332031 C 312.246094 103.964844 313.34375 105.515625 314.976562 105.796875" fill="#231f20"/></g><g id="change2_4"><path d="M 367.550781 155.703125 C 367.550781 156.964844 367.550781 157.90625 367.550781 158.851562 C 367.550781 160.507812 368.894531 161.851562 370.550781 161.851562 C 372.207031 161.851562 373.550781 160.507812 373.550781 158.851562 C 373.550781 157.90625 373.550781 156.964844 373.550781 155.703125 C 373.550781 154.046875 372.207031 152.703125 370.550781 152.703125 C 368.894531 152.703125 367.550781 154.046875 367.550781 155.703125" fill="#231f20"/></g><g id="change1_4"><path d="M 215.414062 291.644531 C 218.875 291.644531 222.023438 291.015625 225.484375 290.703125" fill="#fff"/></g><g id="change2_5"><path d="M 215.414062 294.644531 C 217.328125 294.644531 219.105469 294.472656 220.804688 294.269531 C 222.503906 294.066406 224.125 293.835938 225.753906 293.691406 C 227.40625 293.539062 228.621094 292.082031 228.472656 290.429688 C 228.320312 288.78125 226.863281 287.566406 225.214844 287.714844 C 223.382812 287.882812 221.699219 288.121094 220.09375 288.3125 C 218.488281 288.503906 216.964844 288.644531 215.414062 288.644531 C 213.757812 288.644531 212.414062 289.988281 212.414062 291.644531 C 212.414062 293.300781 213.757812 294.644531 215.414062 294.644531" fill="#231f20"/></g><g id="change1_5"><path d="M 238.699219 289.441406 C 245.625 287.871094 252.859375 288.183594 259.785156 287.238281 C 273.316406 285.980469 286.847656 283.148438 299.746094 278.113281" fill="#fff"/></g><g id="change2_6"><path d="M 239.363281 292.367188 C 242.5625 291.640625 245.945312 291.332031 249.441406 291.097656 C 252.9375 290.863281 256.546875 290.707031 260.191406 290.210938 L 259.785156 287.238281 L 260.0625 290.226562 C 273.820312 288.945312 287.628906 286.0625 300.839844 280.910156 C 302.382812 280.304688 303.144531 278.566406 302.542969 277.023438 C 301.941406 275.480469 300.199219 274.71875 298.65625 275.320312 C 286.0625 280.234375 272.808594 283.015625 259.507812 284.253906 L 259.378906 284.265625 C 256.101562 284.714844 252.628906 284.875 249.042969 285.113281 C 245.460938 285.351562 241.761719 285.671875 238.035156 286.515625 C 236.421875 286.882812 235.40625 288.492188 235.773438 290.105469 C 236.140625 291.722656 237.75 292.734375 239.367188 292.367188" fill="#231f20"/></g></g></svg>