<?xml version="1.0" encoding="UTF-8" standalone="no"?><svg xmlns="http://www.w3.org/2000/svg" xmlns:xlink="http://www.w3.org/1999/xlink" fill="#e7191f" height="26" preserveAspectRatio="xMidYMid meet" version="1" viewBox="0.0 0.0 26.0 26.0" width="26" zoomAndPan="magnify"><g id="change1_1"><path d="M13,0C9.59,0,6.496,1.323,4.178,3.472c-0.245,0.227-0.48,0.462-0.707,0.707C1.323,6.497,0,9.59,0,13c0,7.18,5.82,13,13,13 c3.409,0,6.502-1.322,8.821-3.471c0.245-0.227,0.481-0.462,0.708-0.707C24.677,19.504,26,16.41,26,13C26,5.82,20.18,0,13,0z M13,25 C6.383,25,1,19.617,1,13c0-3.129,1.213-5.972,3.182-8.11L21.11,21.818C18.972,23.787,16.129,25,13,25z M21.818,21.111L4.889,4.183 C7.027,2.214,9.871,1,13,1c6.617,0,12,5.384,12,12C25,16.129,23.787,18.973,21.818,21.111z" fill="inherit"/></g></svg>