<?xml version="1.0" encoding="utf-8" standalone="no"?><!-- Generator: Adobe Illustrator 16.0.0, SVG Export Plug-In . SVG Version: 6.00 Build 0)  --><svg xmlns="http://www.w3.org/2000/svg" xmlns:xlink="http://www.w3.org/1999/xlink" enable-background="new 0 0 500 499.943" fill="#000000" height="499.943px" id="Layer_1" version="1.1" viewBox="0 0 500 499.943" width="500px" x="0px" xml:space="preserve" y="0px">
<g id="change1">
	<path d="M440.102,79.27c-9.778-16.932-27.509-26.405-45.749-26.418l0.003-0.003   c-18.239-0.016-35.974-9.488-45.749-26.418C334.021,1.164,301.715-7.491,276.448,7.098l-0.004,0.003V7.085   c-15.692,9.041-35.608,9.757-52.466,0.198C216.122,2.655,206.973,0,197.201,0c-19.552,0-36.619,10.623-45.756,26.412v-0.003   c-9.133,15.785-26.204,26.408-45.753,26.408c-29.175,0-52.823,23.649-52.823,52.824v0.006l-0.017-0.006   c-0.016,18.102-9.345,35.698-26.03,45.521c-7.944,4.485-14.829,11.086-19.722,19.559c-9.775,16.934-9.11,37.025-0.003,52.83H7.095   c9.101,15.802,9.766,35.895-0.01,52.827c-14.585,25.264-5.932,57.569,19.336,72.158l0.003,0.003l-0.01,0.008   c15.789,9.129,26.406,26.2,26.406,45.752c0,29.175,23.649,52.823,52.823,52.823c19.552,0,36.617,10.621,45.756,26.41l0,0   c9.134,15.782,26.204,26.41,45.753,26.41c9.775,0,18.922-2.66,26.777-7.284c16.854-9.557,36.774-8.841,52.466,0.203v-0.019   l0.003,0.006c25.268,14.586,57.573,5.928,72.163-19.336c9.775-16.929,27.506-26.403,45.746-26.416l-0.004-0.007   c18.24-0.014,35.974-9.487,45.746-26.416c4.812-8.335,7.097-17.439,7.087-26.417l0.007,0.006   c0.016-17.594,8.832-34.719,24.652-44.682c8.527-4.484,15.929-11.355,21.1-20.312c9.779-16.938,9.114-37.03,0.007-52.833h0.003   c-9.104-15.802-9.77-35.895,0.007-52.828c14.59-25.267,5.932-57.569-19.336-72.158l-0.004-0.005l0.01-0.003   c-15.661-9.062-26.235-25.935-26.402-45.291C447.272,97.018,444.994,87.748,440.102,79.27" fill="#3b275a"/>
</g>
</svg>