<?xml version="1.0" encoding="UTF-8"?><svg xmlns="http://www.w3.org/2000/svg" xmlns:xlink="http://www.w3.org/1999/xlink" height="516.1" preserveAspectRatio="xMidYMid meet" version="1.0" viewBox="-8.3 -4.1 521.3 516.1" width="521.3" zoomAndPan="magnify"><g id="change1_1"><path d="M40.8,70.3c18-34.2,59.6-36.2,94.5-33c39,3.6,59.1-6.8,92-25.9c26.7-15.5,51.4-15,79.7-0.5 C341.2,28.5,334.2,60,361.9,80c25.7,18.6,64.5,10.3,91.8,27.5c27.4,17.3,34.8,47.2,33.3,78.1c-2.1,42.1-23.8,81.5-16.1,124.2 c6.2,34.4,42.1,69.7,24.2,106c-33.5,67.9-138.1,11-191.9,20.9C245,447.5,156.8,512,100.8,454.7c-24.8-25.3-11.4-65.6-11.9-96.5 c-0.7-43-15.4-56-45.4-84c-28.9-26.9-51.8-40.3-40.4-81c6.8-24.4,40-29.8,46.2-45.9C56.8,127.2,30.5,89.7,40.8,70.3z" fill="indigo"/></g></svg>