<?xml version="1.0" encoding="UTF-8" standalone="no"?><svg xmlns="http://www.w3.org/2000/svg" xmlns:xlink="http://www.w3.org/1999/xlink" fill="yellow" height="15.9" preserveAspectRatio="xMidYMid meet" version="1" viewBox="7.7 5.7 9.7 15.9" width="9.7" zoomAndPan="magnify"><g id="change1_1"><path d="M10.651,17.324c0.361,0.384,0.809,0.629,1.345,0.733v-3.65c-0.059-0.023-0.137-0.049-0.236-0.079 c-0.099-0.029-0.207-0.055-0.323-0.078c-0.431-0.116-0.856-0.254-1.275-0.411c-0.419-0.157-0.795-0.367-1.127-0.629 c-0.332-0.262-0.597-0.588-0.794-0.978c-0.198-0.39-0.297-0.876-0.297-1.459c0-0.594,0.114-1.118,0.341-1.571 c0.227-0.454,0.526-0.836,0.899-1.144c0.372-0.309,0.803-0.548,1.292-0.716c0.489-0.169,0.996-0.27,1.52-0.306V5.693h1.03v1.345 c0.524,0.058,1.016,0.172,1.476,0.34c0.46,0.169,0.865,0.402,1.214,0.699c0.349,0.297,0.634,0.667,0.856,1.109 c0.221,0.443,0.349,0.967,0.384,1.572h-2.48c-0.012-0.466-0.157-0.862-0.437-1.188C13.76,9.244,13.422,9.08,13.027,9.08v3.091 c0.14,0.035,0.282,0.07,0.428,0.105c0.146,0.035,0.3,0.076,0.463,0.122c0.862,0.233,1.525,0.522,1.991,0.865 c0.465,0.343,0.809,0.702,1.03,1.074c0.221,0.372,0.352,0.745,0.393,1.118s0.061,0.704,0.061,0.995 c0,0.257-0.064,0.579-0.192,0.969c-0.128,0.391-0.358,0.771-0.69,1.144c-0.332,0.373-0.777,0.705-1.336,0.996 c-0.559,0.291-1.275,0.465-2.148,0.524v1.484h-1.03v-1.484c-1.304-0.093-2.323-0.495-3.056-1.205 c-0.734-0.71-1.159-1.752-1.275-3.126h2.463C10.116,16.416,10.291,16.939,10.651,17.324z M11.42,9.168 c-0.186,0.058-0.355,0.149-0.506,0.27c-0.151,0.123-0.27,0.274-0.358,0.454c-0.087,0.181-0.131,0.393-0.131,0.637 c0,0.385,0.122,0.681,0.367,0.891c0.244,0.209,0.646,0.378,1.205,0.506V9.08C11.798,9.08,11.606,9.109,11.42,9.168z M13.682,17.909 c0.227-0.076,0.431-0.184,0.611-0.323c0.18-0.139,0.329-0.312,0.445-0.516c0.116-0.203,0.175-0.445,0.175-0.725 c0-0.454-0.143-0.794-0.428-1.021c-0.285-0.227-0.771-0.434-1.458-0.62v3.353C13.236,18.034,13.455,17.985,13.682,17.909z" fill="inherit"/></g></svg>