<?xml version="1.0" encoding="UTF-8"?><svg xmlns="http://www.w3.org/2000/svg" xmlns:xlink="http://www.w3.org/1999/xlink" data-name="Layer 1" height="375.3" preserveAspectRatio="xMidYMid meet" version="1.0" viewBox="8.5 62.4 480.3 375.3" width="480.3" zoomAndPan="magnify"><g id="change1_1"><path d="M404.65,437.27c-9.65.42-18.79-1.94-27.38-6a355.12,355.12,0,0,1-63.48-38.31c-14.94-11.43-25.67-26.69-35.59-42.5-4.1-6.54-8.44-12.92-12.55-19.44-12.49-19.82-30.55-30.94-53.53-34.33-15.85-2.34-31.75-4.35-47.57-6.79-15.57-2.41-31-5.39-44.84-13.63-11.53-6.86-20.88-16.08-28.89-26.69C81.58,237.31,72.48,225,60.69,215c-5.81-4.92-11.8-9.65-17.39-14.8-5-4.6-10-9.29-14.18-14.61-18-23.05-20.58-48.17-7.59-74.18,9.38-18.8,23.85-32.7,44.53-39,2-.61,4.31-.11,6.48-.17a14.4,14.4,0,0,0,3.79-.3,206.11,206.11,0,0,1,63.91-9.23A154.54,154.54,0,0,1,185,69.21c19.39,6,35.22,17.33,48.28,32.63,6.71,7.87,13.41,15.81,19.46,24.2,16.77,23.22,38.9,39.22,65.44,49.28,16.13,6.12,32.48,11.65,48.7,17.53,15.25,5.52,29.68,12.56,42.58,22.59,18.06,14.05,29.77,32.45,37.47,53.68,3.77,10.4,7,21,11.35,31.16,5.48,12.64,12,24.85,17.9,37.29,2.58,5.4,5.16,10.81,7.3,16.39,5.33,14,4,27.45-4.41,39.8-16.18,23.89-38.74,38.18-67.08,43.38a8.59,8.59,0,0,1-1.52.13Z" fill="#1c333b"/></g></svg>